<?xml version="1.0" encoding="utf-8"?>
<!-- Generator: Adobe Illustrator 16.0.0, SVG Export Plug-In . SVG Version: 6.00 Build 0)  -->
<!DOCTYPE svg PUBLIC "-//W3C//DTD SVG 1.1//EN" "http://www.w3.org/Graphics/SVG/1.1/DTD/svg11.dtd">
<svg version="1.1" id="圖層_1" xmlns="http://www.w3.org/2000/svg" xmlns:xlink="http://www.w3.org/1999/xlink" x="0px" y="0px"
	 width="256px" height="64px" viewBox="0 0 256 64" enable-background="new 0 0 256 64" xml:space="preserve">
<path fill="#00A0E9" d="M5.334,15c0-5.523,4.477-10,10-10l0,0c5.523,0,10,4.477,10,10v34c0,5.522-4.477,10-10,10l0,0
	c-5.523,0-10-4.478-10-10V15z"/>
<path fill="#FFFFFF" d="M48.959,49.25c0,5.385-4.365,9.75-9.75,9.75l0,0c-5.385,0-9.75-4.365-9.75-9.75v-7.5
	c0-5.385,4.365-9.75,9.75-9.75l0,0c5.385,0,9.75,4.365,9.75,9.75V49.25z"/>
<g>
	<path fill="#FFFFFF" d="M62.181,8.275h4.143l1.069,7.74c0.228,1.775,0.455,3.551,0.683,5.372h0.091
		c0.319-1.821,0.66-3.619,1.002-5.372l1.73-7.74h3.438l1.752,7.74c0.341,1.73,0.638,3.551,0.979,5.372h0.114
		c0.205-1.821,0.432-3.619,0.637-5.372l1.116-7.74h3.847l-2.937,16.959h-5.122l-1.525-7.376c-0.273-1.297-0.501-2.663-0.66-3.938
		h-0.091c-0.228,1.274-0.432,2.641-0.683,3.938l-1.479,7.376h-5.031L62.181,8.275z"/>
	<path fill="#FFFFFF" d="M84.037,18.746c0-4.188,3.028-6.783,6.146-6.783c3.733,0,5.554,2.709,5.554,6.237
		c0,0.729-0.091,1.434-0.182,1.753h-7.604c0.365,1.775,1.594,2.504,3.233,2.504c0.933,0,1.798-0.273,2.731-0.819l1.343,2.436
		c-1.343,0.956-3.118,1.48-4.621,1.48C86.905,25.553,84.037,23.048,84.037,18.746z M92.3,17.29c0-1.275-0.568-2.231-2.048-2.231
		c-1.116,0-2.094,0.706-2.368,2.231H92.3z"/>
	<path fill="#FFFFFF" d="M101.931,23.845h-0.114l-0.319,1.389h-3.164V7.046h4.052v4.371l-0.114,1.935
		c0.956-0.865,2.163-1.388,3.346-1.388c3.096,0,5.076,2.595,5.076,6.556c0,4.484-2.663,7.034-5.44,7.034
		C104.116,25.553,102.932,24.96,101.931,23.845z M106.529,18.609c0-2.276-0.661-3.346-2.095-3.346c-0.751,0-1.366,0.342-2.048,1.093
		v5.121c0.614,0.569,1.297,0.751,1.912,0.751C105.528,22.229,106.529,21.205,106.529,18.609z"/>
	<path fill="#FFFFFF" d="M112.563,23.117l2.322-2.8c1.184,1.024,2.754,1.73,4.098,1.73c1.502,0,2.208-0.569,2.208-1.48
		c0-0.979-0.933-1.297-2.39-1.912l-2.163-0.91c-1.775-0.706-3.437-2.185-3.437-4.644c0-2.846,2.549-5.122,6.146-5.122
		c1.958,0,4.029,0.751,5.509,2.231l-2.026,2.549c-1.115-0.842-2.163-1.297-3.483-1.297c-1.251,0-2.003,0.501-2.003,1.389
		c0,0.956,1.047,1.32,2.549,1.912l2.117,0.842c2.095,0.842,3.347,2.253,3.347,4.644c0,2.822-2.368,5.304-6.465,5.304
		C116.684,25.553,114.316,24.733,112.563,23.117z"/>
	<path fill="#FFFFFF" d="M127.634,20.431v-4.985h-1.753v-3.004l2.003-0.16l0.455-3.437h3.347v3.437h3.05v3.164h-3.05v4.94
		c0,1.434,0.683,2.003,1.639,2.003c0.41,0,0.865-0.137,1.184-0.25l0.638,2.937c-0.683,0.205-1.616,0.478-2.937,0.478
		C128.955,25.553,127.634,23.481,127.634,20.431z"/>
	<path fill="#FFFFFF" d="M137.015,8.389c0-1.251,0.888-2.071,2.254-2.071c1.343,0,2.253,0.82,2.253,2.071
		c0,1.275-0.91,2.095-2.253,2.095C137.902,10.483,137.015,9.664,137.015,8.389z M137.242,12.281h4.052v12.953h-4.052V12.281z"/>
	<path fill="#FFFFFF" d="M143.821,18.746c0-4.28,3.187-6.783,6.808-6.783c1.57,0,2.799,0.546,3.777,1.388l-1.889,2.572
		c-0.593-0.478-1.093-0.683-1.639-0.683c-1.8,0-2.913,1.366-2.913,3.505c0,2.163,1.182,3.528,2.752,3.528
		c0.821,0,1.594-0.387,2.254-0.911l1.572,2.664c-1.275,1.115-2.914,1.525-4.28,1.525C146.622,25.553,143.821,23.048,143.821,18.746z
		"/>
	<path fill="#FFFFFF" d="M156.776,7.046h3.983v10.106h0.112l3.824-4.871h4.439l-4.507,5.395l4.825,7.558h-4.393l-2.799-4.917
		l-1.503,1.707v3.21h-3.983V7.046z"/>
</g>
<g>
	<path fill="#FFFFFF" d="M63.797,35.285h5.963c3.711,0,6.784,1.342,6.784,5.531c0,4.03-3.096,5.804-6.692,5.804h-1.98v5.624h-4.074
		V35.285z M69.647,43.412c1.98,0,2.937-0.935,2.937-2.596c0-1.706-1.093-2.299-3.051-2.299h-1.662v4.895H69.647z"/>
	<path fill="#FFFFFF" d="M77.844,45.757c0-4.28,3.051-6.785,6.351-6.785c3.278,0,6.329,2.505,6.329,6.785
		c0,4.302-3.05,6.806-6.329,6.806C80.895,52.563,77.844,50.059,77.844,45.757z M86.381,45.757c0-2.142-0.683-3.506-2.186-3.506
		c-1.525,0-2.208,1.364-2.208,3.506c0,2.162,0.683,3.526,2.208,3.526C85.698,49.283,86.381,47.919,86.381,45.757z"/>
	<path fill="#FFFFFF" d="M91.823,50.741l1.798-2.527c1.184,0.887,2.254,1.367,3.278,1.367c1.07,0,1.525-0.389,1.525-1.025
		c0-0.774-1.252-1.138-2.573-1.662c-1.547-0.615-3.3-1.661-3.3-3.823c0-2.437,1.98-4.099,5.008-4.099
		c2.026,0,3.528,0.819,4.621,1.662l-1.798,2.413c-0.934-0.66-1.844-1.094-2.686-1.094c-0.934,0-1.366,0.321-1.366,0.935
		c0,0.774,1.116,1.069,2.458,1.549c1.617,0.613,3.415,1.547,3.415,3.893c0,2.389-1.866,4.233-5.395,4.233
		C95.124,52.563,93.143,51.835,91.823,50.741z"/>
	<path fill="#FFFFFF" d="M104.55,47.439v-4.985h-1.753v-3.005l2.003-0.159l0.455-3.436h3.346v3.436h3.051v3.164h-3.051v4.94
		c0,1.435,0.684,2.004,1.64,2.004c0.409,0,0.865-0.136,1.184-0.251l0.637,2.938c-0.683,0.203-1.616,0.478-2.937,0.478
		C105.871,52.563,104.55,50.491,104.55,47.439z"/>
	<path fill="#FFFFFF" d="M114.476,35.285h10.744v3.392h-6.67v3.141h5.668v3.415h-5.668v3.597h6.92v3.415h-10.995V35.285z"/>
	<path fill="#FFFFFF" d="M128.5,39.29h3.301l0.296,1.617h0.068c1.069-1.048,2.391-1.936,4.144-1.936
		c2.822,0,4.028,2.027,4.028,5.259v8.014h-4.052v-7.513c0-1.797-0.478-2.298-1.503-2.298c-0.91,0-1.457,0.409-2.23,1.16v8.65H128.5
		V39.29z"/>
	<path fill="#FFFFFF" d="M142.705,54.428c0-1.069,0.615-1.934,1.821-2.549v-0.114c-0.683-0.454-1.184-1.138-1.184-2.23
		c0-0.91,0.593-1.821,1.457-2.413V47.03c-0.934-0.637-1.774-1.843-1.774-3.368c0-3.141,2.617-4.69,5.416-4.69
		c0.752,0,1.457,0.115,2.049,0.318h4.758v2.938h-1.98c0.183,0.365,0.342,0.957,0.342,1.57c0,3.028-2.3,4.349-5.168,4.349
		c-0.432,0-0.956-0.068-1.524-0.228c-0.272,0.271-0.409,0.454-0.409,0.91c0,0.593,0.522,0.864,1.911,0.864h2.05
		c3.186,0,5.007,0.98,5.007,3.323c0,2.733-2.845,4.666-7.353,4.666C145.142,57.683,142.705,56.752,142.705,54.428z M151.584,53.723
		c0-0.774-0.684-0.934-1.891-0.934h-1.229c-0.934,0-1.435-0.044-1.844-0.159c-0.41,0.365-0.593,0.729-0.593,1.161
		c0,0.91,1.094,1.367,2.732,1.367C150.423,55.158,151.584,54.542,151.584,53.723z M150.104,43.662c0-1.299-0.706-1.98-1.662-1.98
		c-0.933,0-1.638,0.682-1.638,1.98c0,1.364,0.705,2.048,1.638,2.048C149.397,45.71,150.104,45.026,150.104,43.662z"/>
	<path fill="#FFFFFF" d="M157.276,35.398c0-1.252,0.889-2.071,2.254-2.071c1.343,0,2.254,0.819,2.254,2.071
		c0,1.275-0.911,2.095-2.254,2.095C158.165,37.493,157.276,36.674,157.276,35.398z M157.505,39.29h4.051v12.954h-4.051V39.29z"/>
	<path fill="#FFFFFF" d="M164.813,39.29h3.3l0.296,1.617h0.069c1.069-1.048,2.39-1.936,4.143-1.936c2.822,0,4.028,2.027,4.028,5.259
		v8.014h-4.051v-7.513c0-1.797-0.479-2.298-1.503-2.298c-0.91,0-1.456,0.409-2.231,1.16v8.65h-4.051V39.29z"/>
	<path fill="#FFFFFF" d="M179.063,45.757c0-4.189,3.027-6.785,6.146-6.785c3.734,0,5.556,2.71,5.556,6.237
		c0,0.728-0.092,1.435-0.183,1.753h-7.603c0.363,1.776,1.594,2.504,3.231,2.504c0.934,0,1.799-0.273,2.732-0.819l1.344,2.437
		c-1.344,0.955-3.12,1.479-4.621,1.479C181.932,52.563,179.063,50.059,179.063,45.757z M187.327,44.299
		c0-1.275-0.569-2.23-2.049-2.23c-1.115,0-2.095,0.704-2.367,2.23H187.327z"/>
	<path fill="#FFFFFF" d="M198.894,35.285h5.964c3.711,0,6.784,1.342,6.784,5.531c0,4.03-3.097,5.804-6.693,5.804h-1.98v5.624h-4.074
		V35.285z M204.743,43.412c1.98,0,2.937-0.935,2.937-2.596c0-1.706-1.093-2.299-3.05-2.299h-1.662v4.895H204.743z"/>
	<path fill="#FFFFFF" d="M214.217,39.29h3.3l0.296,2.254h0.069c0.956-1.729,2.39-2.572,3.687-2.572c0.774,0,1.207,0.115,1.571,0.274
		l-0.66,3.482c-0.478-0.115-0.865-0.204-1.434-0.204c-0.956,0-2.118,0.613-2.778,2.322v7.397h-4.051V39.29z"/>
	<path fill="#FFFFFF" d="M223.778,45.757c0-4.28,3.051-6.785,6.352-6.785c3.277,0,6.328,2.505,6.328,6.785
		c0,4.302-3.051,6.806-6.328,6.806C226.829,52.563,223.778,50.059,223.778,45.757z M232.314,45.757c0-2.142-0.684-3.506-2.185-3.506
		c-1.526,0-2.208,1.364-2.208,3.506c0,2.162,0.682,3.526,2.208,3.526C231.631,49.283,232.314,47.919,232.314,45.757z"/>
</g>
</svg>
